# xmcd CD database file
#
# Track frame offsets:
#	150
#	14285
#	34906
#	47687
#	64377
#	78664
#	98391
#	110452
#	132052
#	146064
#	160546
#	178484
#	189955
#	200703
#	214602
#	229440
#	244008
#	272466
#	285727
#	299476
#
# Disc length: 4183 seconds
#
# Revision: 1
# Processed by: cddbd v1.5.2PL0 Copyright (c) Steve Scherf et al.
# Submitted via: CDex 1.70beta2
#
DISCID=29105514
DTITLE=Various Artist - Ladies sing Jazz - CD6
DYEAR=1900
DGENRE=Jazz
TTITLE0=Into Each Life Some Rain Must Fall - Ella Fitzgerald
TTITLE1=Aint Got No - I Got Life - Nina Simone
TTITLE2=Oh, What A Beautiful Morning - Peggy Lee
TTITLE3=Stormy Weather - Billie Holiday
TTITLE4=The One I Love Belongs To Somebody Else - Sarah Vaughan
TTITLE5=Far Away - Astrud Gilberto
TTITLE6=Oo Wee Walkie Talkie - Dinah Washington
TTITLE7=How Long Has This Been Going On? - Carmen Mcrae
TTITLE8=A Kiss Goodnight - Ella Fitzgerald
TTITLE9=5-10-15 Hours - Ruth Brown
TTITLE10=For All We Know - Nina Simone
TTITLE11=I Cant Give You Anything But Love - Peggy Lee
TTITLE12=Im Gonna Sit Right Down And Write Myself A Letter - Sarah Vaughan
TTITLE13=Hes Funny That Way - Billie Holiday
TTITLE14=Hes My Guy - Ella Fitzgerald
TTITLE15=Am I Blue? - Dinah Washington
TTITLE16=April In Paris - Ella Fitzgerald
TTITLE17=I Hear A Rhapsody - Dinah Shore
TTITLE18=Deed I Do - Peggy Lee
TTITLE19=The Starlit Hour - Ella Fitzgerald
EXTD=
EXTT0=
EXTT1=
EXTT2=
EXTT3=
EXTT4=
EXTT5=
EXTT6=
EXTT7=
EXTT8=
EXTT9=
EXTT10=
EXTT11=
EXTT12=
EXTT13=
EXTT14=
EXTT15=
EXTT16=
EXTT17=
EXTT18=
EXTT19=
PLAYORDER=
